<?xml version="1.0" standalone="no"?><!DOCTYPE svg PUBLIC "-//W3C//DTD SVG 1.1//EN" "http://www.w3.org/Graphics/SVG/1.1/DTD/svg11.dtd"><svg t="1568689295761" class="icon" viewBox="0 0 1024 1024" version="1.1" xmlns="http://www.w3.org/2000/svg" p-id="2636" xmlns:xlink="http://www.w3.org/1999/xlink" width="16" height="16"><defs><style type="text/css"></style></defs><path d="M512 248.027429l0 248.027429-82.870857 0 0-248.027429 82.870857 0zM739.401143 248.027429l0 248.027429-82.870857 0 0-248.027429 82.870857 0zM739.401143 682.276571l144.603429-145.115429 0-454.290286-682.276571 0 0 599.405714 186.294857 0 0 123.977143 123.977143-123.977143 227.401143 0zM966.875429 0l0 578.852571-248.027429 248.027429-186.294857 0-123.977143 123.977143-123.977143 0 0-123.977143-227.401143 0 0-661.723429 62.317714-165.156571 847.433143 0z" p-id="2637"></path></svg>